<svg xmlns="http://www.w3.org/2000/svg" width="96" height="96" viewBox="0 0 96 96" fill="none">
<path d="M48 0C74.5085 0 96 21.4915 96 48C96 74.5085 74.5075 96 48 96C21.4925 96 0 74.5142 0 48C0 21.4858 21.4886 0 48 0Z" fill="#21A27C"/>
<path d="M53.924 41.6045V34.464H70.2526V23.5843H25.7893V34.464H42.1199V41.5987C28.8479 42.2083 18.8687 44.8368 18.8687 47.9856C18.8687 51.1344 28.8527 53.7629 42.1199 54.3763V77.2484H53.9279V54.3744C67.1759 53.7629 77.1349 51.1363 77.1349 47.9904C77.1349 44.8445 67.1759 42.2179 53.9279 41.6064L53.924 41.6045ZM53.9279 52.4371V52.4314C53.5947 52.4525 51.8831 52.5552 48.0719 52.5552C45.0248 52.5552 42.8811 52.4688 42.1256 52.4295V52.4391C30.4002 51.9197 21.6479 49.8778 21.6479 47.4346C21.6479 44.9914 30.4011 42.9523 42.1256 42.432V50.4048C42.8936 50.4576 45.0901 50.5872 48.1218 50.5872C51.763 50.5872 53.5938 50.4355 53.9298 50.4048V42.432C65.6322 42.9533 74.3643 44.9971 74.3643 47.4317C74.3643 49.8663 65.6283 51.9111 53.9298 52.4323" fill="white"/>
</svg>