<svg width="96" height="96" viewBox="0 0 96 96" fill="none" xmlns="http://www.w3.org/2000/svg">
<path d="M48 96C74.5097 96 96 74.5097 96 48C96 21.4903 74.5097 0 48 0C21.4903 0 0 21.4903 0 48C0 74.5097 21.4903 96 48 96Z" fill="#F0B90B"/>
<path d="M34.5355 42.4676L48.0002 29.0032L61.4716 42.4747L69.3063 34.6397L48.0002 13.3333L26.7007 34.6328L34.5355 42.4676ZM21.1683 40.1646L29.003 47.9993L21.1679 55.8344L13.3333 47.9996L21.1683 40.1646ZM34.5355 53.5322L48.0002 66.9962L61.4714 53.5254L69.3105 61.3562L69.3063 61.3602L48.0002 82.6666L26.7004 61.3671L26.6895 61.3564L34.5355 53.5322ZM82.6674 48.0007L74.8327 55.8353L66.9981 48.0007L74.8327 40.166L82.6674 48.0007Z" fill="white"/>
<path d="M55.9466 47.9961H55.9502L47.9999 40.0457L40.0457 47.9999L40.0565 48.011L47.9999 55.9544L55.9539 47.9999L55.9466 47.9961Z" fill="white"/>
</svg>
