<svg width="96" height="96" viewBox="0 0 96 96" fill="none" xmlns="http://www.w3.org/2000/svg">
<path d="M48 96C74.6002 96 96 74.6002 96 48C96 21.3998 74.6002 0 48 0C21.3998 0 0 21.3998 0 48C0 74.6002 21.3998 96 48 96Z" fill="#2775CA"/>
<path d="M61.2001 55.5999C61.2001 48.6 57.0001 46.2001 48.6001 45.2002C42.6001 44.4001 41.4001 42.8002 41.4001 39.9999C41.4001 37.1996 43.4002 35.4001 47.4001 35.4001C51.0001 35.4001 53.0002 36.6001 54.0001 39.6001C54.2002 40.2001 54.8002 40.5999 55.4002 40.5999H58.5999C59.4001 40.5999 60.0001 39.9999 60.0001 39.2002V39.0001C59.1999 34.5999 55.5999 31.2001 51.0001 30.8002V26.0002C51.0001 25.2001 50.4001 24.6001 49.4002 24.3999H46.4002C45.6001 24.3999 45.0001 24.9999 44.7999 26.0002V30.6001C38.7999 31.4002 35.0003 35.4001 35.0003 40.4002C35.0003 47.0002 39.0001 49.5999 47.4001 50.6002C53.0002 51.6001 54.8002 52.8001 54.8002 56.0002C54.8002 59.2004 51.9999 61.4002 48.2002 61.4002C42.9999 61.4002 41.1999 59.1999 40.5999 56.1999C40.4003 55.4002 39.8003 54.9999 39.2003 54.9999H35.7999C35.0003 54.9999 34.4003 55.5999 34.4003 56.4V56.6002C35.1999 61.5999 38.4001 65.1999 45.0001 66.2002V71.0002C45.0001 71.7999 45.6001 72.3999 46.5999 72.6H49.5999C50.4001 72.6 51.0001 72 51.2002 71.0002V66.2002C57.2002 65.1999 61.2001 60.9999 61.2001 55.5999V55.5999Z" fill="white"/>
<path d="M37.8 76.5998C22.2 71.0001 14.1998 53.6001 20.0002 38.1998C23.0002 29.7998 29.6002 23.4 37.8 20.4C38.6002 20.0001 39 19.4001 39 18.3998V15.6C39 14.7998 38.6002 14.1998 37.8 14.0001C37.5998 14.0001 37.2 14.0001 36.9998 14.1998C18 20.1998 7.59983 40.4001 13.5998 59.4C17.1998 70.5998 25.8 79.2 36.9998 82.8C37.8 83.1998 38.6002 82.8 38.7998 81.9998C39 81.8001 39 81.6 39 81.2001V78.3998C39 77.7998 38.4 77.0001 37.8 76.5998ZM59.0002 14.1998C58.2 13.8 57.3998 14.1998 57.2002 15C57 15.2001 57 15.3998 57 15.8001V18.6C57 19.4001 57.6 20.1998 58.2 20.6001C73.8 26.1998 81.8002 43.5998 75.9998 59.0001C72.9998 67.4001 66.3998 73.8 58.2 76.8C57.3998 77.1998 57 77.7998 57 78.8001V81.6C57 82.4001 57.3998 83.0001 58.2 83.1998C58.4002 83.1998 58.8 83.1998 59.0002 83.0001C78 77.0001 88.4002 56.7998 82.4002 37.8C78.8002 26.4 69.9998 17.7998 59.0002 14.1998V14.1998Z" fill="white"/>
</svg>
