<svg width="96" height="96" viewBox="0 0 96 96" fill="none" xmlns="http://www.w3.org/2000/svg">
<path d="M48 96C74.5097 96 96 74.5097 96 48C96 21.4903 74.5097 0 48 0C21.4903 0 0 21.4903 0 48C0 74.5097 21.4903 96 48 96Z" fill="#F0B90B"/>
<path fill-rule="evenodd" clip-rule="evenodd" d="M27.5718 35.808L48.0198 15.36L56.1731 23.5133L35.7251 43.9613L27.5718 35.808ZM27.5867 60.2429L60.2646 27.5649L68.4179 35.7182L35.7399 68.3961L27.5867 60.2429ZM72.4863 39.8097L39.8084 72.4877L47.9612 80.64L80.6401 47.9625L72.4863 39.8097ZM15.3601 48.0173L23.5134 39.864L31.6667 48.0173L23.5134 56.1705L15.3601 48.0173Z" fill="white"/>
</svg>
