<svg width="96" height="96" viewBox="0 0 96 96" fill="none" xmlns="http://www.w3.org/2000/svg">
<path d="M48 96C74.5097 96 96 74.5097 96 48C96 21.4903 74.5097 0 48 0C21.4903 0 0 21.4903 0 48C0 74.5097 21.4903 96 48 96Z" fill="#49FFA1"/>
<path d="M48 92.4993C72.5763 92.4993 92.4993 72.5763 92.4993 48C92.4993 23.4238 72.5763 3.50076 48 3.50076C23.4238 3.50076 3.50076 23.4238 3.50076 48C3.50076 72.5763 23.4238 92.4993 48 92.4993Z" fill="#33B371"/>
<path d="M48 89.9924C71.1918 89.9924 89.9924 71.1918 89.9924 48C89.9924 24.8083 71.1918 6.00763 48 6.00763C24.8083 6.00763 6.00763 24.8083 6.00763 48C6.00763 71.1918 24.8083 89.9924 48 89.9924Z" fill="url(#paint0_linear_0_1)"/>
<path d="M47.9981 82.2945L17.0715 28.745H17.7014C23.3285 28.745 28.9568 28.7406 34.5863 28.732C34.7768 28.7129 34.9685 28.7541 35.1343 28.8499C35.3001 28.9458 35.4315 29.0913 35.51 29.2659C38.3155 34.1528 41.1309 39.0329 43.9561 43.9063C47.8725 50.6861 51.7871 57.4671 55.6998 64.2494C56.1081 64.957 56.5256 65.6608 56.9154 66.3776C56.9513 66.4522 56.9709 66.5337 56.9728 66.6165C56.9747 66.6994 56.9589 66.7817 56.9264 66.8579C54.0039 71.9369 51.074 77.0116 48.1367 82.082C48.1053 82.1374 48.0647 82.191 47.9981 82.2945ZM27.9894 35.0463L47.9797 69.6567C48.0369 69.6049 48.0757 69.5846 48.0942 69.5513C48.6318 68.6277 49.1731 67.704 49.6959 66.7674C49.7163 66.7067 49.7236 66.6424 49.7172 66.5787C49.7108 66.5149 49.691 66.4533 49.6589 66.3979C48.4089 64.2094 47.1527 62.024 45.8903 59.8416C43.3336 55.4166 40.7737 50.9921 38.2108 46.5683C36.0408 42.812 33.8677 39.0557 31.6915 35.2994C31.6578 35.237 31.6112 35.1826 31.5548 35.1396C31.4984 35.0966 31.4336 35.0661 31.3645 35.05C30.2672 35.0389 29.1698 35.0463 27.9894 35.0463Z" fill="#49FFA1"/>
<path d="M58.8569 63.54C55.7645 58.1827 52.7034 52.8863 49.6201 47.5419C49.7661 47.5289 49.8695 47.5123 49.973 47.5123C52.1307 47.5123 54.2884 47.5123 56.448 47.5123C56.5768 47.4953 56.7076 47.5201 56.8213 47.5829C56.935 47.6458 57.0256 47.7434 57.0798 47.8615C57.5823 48.7741 58.1162 49.67 58.639 50.5715C58.7018 50.6787 58.7701 50.7784 58.8643 50.9281L62.6015 44.4512C62.4168 44.442 62.282 44.4309 62.1489 44.4309C57.5059 44.4309 52.8641 44.4309 48.2235 44.4309C48.101 44.4453 47.977 44.4211 47.8688 44.3619C47.7605 44.3026 47.6734 44.2112 47.6194 44.1002C44.7179 39.0606 41.8101 34.0235 38.8962 28.9888C38.8611 28.9315 38.8315 28.8706 38.7798 28.7727H78.9285C78.5979 29.3472 78.2783 29.9125 77.9531 30.4741C77.1292 31.9021 76.2905 33.3264 75.4832 34.7581C75.442 34.8521 75.3726 34.9309 75.2845 34.9836C75.1964 35.0362 75.0941 35.0601 74.9918 35.0519C68.0383 35.0432 61.0836 35.0432 54.1277 35.0519H49.7051C49.7827 35.207 49.8344 35.3271 49.8991 35.4398C50.3535 36.2342 50.8228 37.023 51.2606 37.8247C51.31 37.9378 51.3936 38.0324 51.4997 38.0954C51.6057 38.1584 51.7289 38.1865 51.8517 38.1757C55.831 38.1659 59.8096 38.1659 63.7876 38.1757H73.5047L58.8569 63.54Z" fill="#49FFA1"/>
<path d="M28.0928 25.1112L31.3627 23.2232C36.7939 20.0938 42.227 16.9619 47.6619 13.8275C47.7668 13.7527 47.8924 13.7125 48.0213 13.7125C48.1501 13.7125 48.2757 13.7527 48.3806 13.8275C53.7047 16.9163 59.0337 19.9952 64.3676 23.0643L67.6929 24.9874C67.7354 25.0133 67.7742 25.0465 67.8979 25.1389H67.0999C63.4476 25.1389 59.7936 25.1389 56.1413 25.1389C55.9208 25.1363 55.7044 25.0792 55.5114 24.9726C53.1024 23.5957 50.7008 22.2108 48.3067 20.8179C48.2243 20.758 48.125 20.7257 48.0231 20.7257C47.9212 20.7257 47.8219 20.758 47.7395 20.8179C45.3281 22.2182 42.913 23.6099 40.4942 24.993C40.3378 25.0818 40.1622 25.1313 39.9825 25.1371C36.103 25.1445 32.2235 25.1445 28.3441 25.1371C28.2942 25.1408 28.2536 25.1315 28.0928 25.1112Z" fill="#49FFA1"/>
<path d="M39.2638 74.7443C38.2644 74.1716 37.3647 73.6599 36.4688 73.1426C30.8762 69.9171 25.2873 66.6941 19.7021 63.4735C19.5901 63.4235 19.4964 63.3399 19.4338 63.2344C19.3713 63.1288 19.343 63.0065 19.353 62.8842C19.364 57.9579 19.364 53.0353 19.353 48.1164C19.353 45.6237 19.353 43.1304 19.353 40.6364C19.353 40.5441 19.364 40.4517 19.3751 40.254C19.9293 41.1925 20.4152 42.0386 20.9047 42.8884C22.3069 45.3158 23.6979 47.7488 25.113 50.167C25.3381 50.5382 25.4546 50.9651 25.4492 51.3992C25.4326 54.0354 25.4492 56.6734 25.4326 59.3096C25.4206 59.4393 25.4499 59.5695 25.5163 59.6816C25.5826 59.7937 25.6826 59.882 25.8021 59.934C28.1975 61.3072 30.5874 62.6884 32.9717 64.0776C33.1286 64.1668 33.2607 64.2938 33.356 64.4471C35.2994 67.7957 37.2366 71.1487 39.1678 74.506C39.2043 74.5835 39.2363 74.6631 39.2638 74.7443Z" fill="#49FFA1"/>
<path d="M76.6655 40.3593V41.8372C76.6655 43.7843 76.6655 45.7314 76.6655 47.6786C76.6557 52.6997 76.6489 57.7208 76.6452 62.7419C76.6614 62.9052 76.6266 63.0694 76.5456 63.2121C76.4645 63.3547 76.3412 63.4686 76.1926 63.5382C74.1445 64.6971 72.1025 65.8671 70.0668 67.0481C66.6775 69.0064 63.2906 70.9682 59.9063 72.9338C58.8865 73.525 57.8631 74.1088 56.7861 74.6445C57.2381 73.86 57.69 73.0755 58.142 72.291C59.6495 69.6813 61.1594 67.0722 62.6718 64.4637C62.7684 64.3109 62.901 64.184 63.0579 64.0942C65.4557 62.7001 67.8573 61.3109 70.2626 59.9266C70.3692 59.8781 70.4585 59.7981 70.5183 59.6974C70.5781 59.5966 70.6055 59.48 70.5969 59.3631C70.5822 56.6278 70.5822 53.8912 70.5969 51.1534C70.5994 50.9048 70.6628 50.6606 70.7817 50.4422C72.6648 47.1379 74.5583 43.8385 76.4623 40.544C76.503 40.4738 76.5473 40.4055 76.5898 40.3353L76.6655 40.3593Z" fill="#49FFA1"/>
<defs>
<linearGradient id="paint0_linear_0_1" x1="48" y1="6.00578" x2="48" y2="89.9924" gradientUnits="userSpaceOnUse">
<stop stop-color="#171717"/>
<stop offset="0.61" stop-color="#1D2F23"/>
<stop offset="1" stop-color="#22402C"/>
</linearGradient>
</defs>
</svg>
