<svg width="96" height="96" viewBox="0 0 96 96" fill="none" xmlns="http://www.w3.org/2000/svg">
<path d="M48 96C74.5097 96 96 74.5097 96 48C96 21.4903 74.5097 0 48 0C21.4903 0 0 21.4903 0 48C0 74.5097 21.4903 96 48 96Z" fill="#627EEA"/>
<path d="M49.4939 12V38.61L71.9849 48.66L49.4939 12Z" fill="white" fill-opacity="0.602"/>
<path d="M49.494 12L27 48.66L49.494 38.61V12Z" fill="white"/>
<path d="M49.4941 65.904V83.985L72.0001 52.848L49.4941 65.904Z" fill="white" fill-opacity="0.602"/>
<path d="M49.494 83.985V65.901L27 52.848L49.494 83.985Z" fill="white"/>
<path d="M49.4941 61.719L71.9851 48.66L49.4941 38.616V61.719Z" fill="white" fill-opacity="0.2"/>
<path d="M27 48.66L49.494 61.719V38.616L27 48.66Z" fill="white" fill-opacity="0.602"/>
</svg>
