<svg xmlns="http://www.w3.org/2000/svg" width="160" height="26" viewBox="0 0 160 26" fill="none">
<path d="M41.6113 14.7609L38.6458 15.7711V21.4537H33.1753V14.0491V3.54477L38.6458 4.50911V11.5924L46.6071 4.50911H52.6538L46.6071 11.5924L53.3709 21.2242L46.6071 20.2368L41.6113 14.7609ZM65.6259 17.9294C65.6259 17.3553 65.3232 16.9116 64.7175 16.5976C64.1226 16.2762 63.0761 16.0008 61.5779 15.7711C60.0907 15.5415 58.9061 15.266 58.0242 14.9445C57.1531 14.6231 56.505 14.2404 56.0801 13.7965C55.6657 13.3526 55.4585 12.8246 55.4585 12.2123C55.4585 11.1944 56.0534 10.3334 57.2434 9.62925C58.4439 8.92513 59.9738 8.57307 61.8331 8.57307C63.7878 8.57307 65.3709 8.93661 66.5819 9.6637C67.8037 10.3908 68.4147 11.3207 68.4147 12.4534H65.4506C65.4506 11.8717 65.1053 11.3704 64.4147 10.9495C63.7347 10.5285 62.8743 10.3181 61.8331 10.3181C60.7599 10.3181 59.9207 10.4864 59.315 10.8232C58.7095 11.1599 58.4068 11.6 58.4068 12.1434C58.4068 12.6562 58.6883 13.0427 59.2513 13.3029C59.8145 13.5631 60.8291 13.8118 62.2951 14.0491C63.7719 14.2863 64.9671 14.5696 65.8809 14.8986C66.7944 15.2277 67.4691 15.6257 67.9048 16.0925C68.351 16.5517 68.574 17.1143 68.574 17.7801C68.574 18.89 67.9579 19.7815 66.7254 20.4551C65.493 21.1208 63.8942 21.4537 61.9287 21.4537C60.5474 21.4537 59.3258 21.2778 58.2633 20.9258C57.2009 20.5736 56.367 20.0839 55.7613 19.4562C55.1664 18.821 54.8689 18.136 54.8689 17.4013H57.8172C57.8703 18.1131 58.2633 18.6794 58.9963 19.1003C59.74 19.5136 60.7175 19.7204 61.9287 19.7204C63.0441 19.7204 63.9366 19.5596 64.606 19.2382C65.2858 18.9091 65.6259 18.4728 65.6259 17.9294ZM73.8648 21.2242V10.4443L71.1398 13.3029V8.80269H73.8648H72.5023C72.5023 7.47101 72.8769 5.23619 73.8648 4.50911C74.8528 3.78204 77.7321 3.34961 79.5381 3.34961C80.2179 3.34961 80.8926 3.41467 81.562 3.54477V7.49395C82.1251 7.49395 81.0627 7.42507 81.562 7.49395C80.6058 7.49395 78.1144 5.36628 77.5939 5.77192C77.0733 6.16991 76.813 6.74392 76.813 7.49395V8.80269H80.4943L82.8051 12.7174L77.5939 10.8232V21.4537L73.8648 21.2242ZM91.06 13.7736C88.4358 13.2302 86.5235 12.5643 85.3232 11.776C84.1332 10.9801 83.5381 10.0004 83.5381 8.83712C83.5381 7.52073 84.2661 6.43394 85.7213 5.57677C87.1874 4.71193 89.0892 4.2795 91.4267 4.2795C93.0202 4.2795 94.4384 4.50146 95.6816 4.94536C96.9351 5.38925 97.9019 6.00153 98.5821 6.78217C99.2724 7.56282 99.6176 8.41618 99.6176 9.34224L96.4466 10.9495C96.4466 9.93921 96.1914 8.10238 95.2991 7.52837C94.4068 6.9467 93.5457 6.78217 91.9205 6.78217C90.4117 6.78217 88.7387 6.3 87.8887 6.78217C87.8887 7.45951 87.4267 7.72354 87.4267 8.57307C87.4267 9.25423 87.0282 10.0617 87.8252 10.5362C88.6325 11.003 89.9975 11.4316 91.9205 11.822C93.8542 12.2123 95.3628 12.6447 96.4466 13.1192C97.5406 13.5861 98.348 14.1333 98.8686 14.7609C99.3999 15.3884 99.6655 16.1269 99.6655 16.9765C99.6655 18.3312 98.9326 19.4179 97.4665 20.2368C96.0001 21.0481 94.0403 21.4537 91.5859 21.4537C89.9922 21.4537 88.505 21.2357 87.1237 20.7994C85.7425 20.3555 84.675 19.7508 83.9207 18.9855C83.1768 18.2202 82.8051 17.3515 82.8051 16.3796L87.8887 15.1971C87.8887 16.2073 86.8475 17.5199 87.8887 18.1017C88.9298 18.6832 90.1888 18.9855 91.9205 18.9855C93.5353 18.9855 94.534 18.7713 95.3946 18.2967C96.2553 17.8222 96.5899 17.8184 96.5899 16.9994C96.5899 16.1805 96.1914 15.5492 95.3946 15.1053C94.5977 14.6537 93.1527 14.2098 91.06 13.7736ZM118.389 15.1971L119.649 8.83712L124.669 8.80269L119.649 21.2242H117.259L113.068 11.8105L108.988 21.2242H106.598L101.594 8.80269L106.598 8.57307L107.678 15.0735L111.937 8.80269H114.311L118.389 15.1971ZM138.327 21.2242C138.157 20.9792 138.019 20.5431 137.912 19.9154C136.542 20.9411 134.906 21.4537 133.004 21.4537C131.304 21.4537 129.907 21.1094 128.813 20.4206C127.729 19.7242 127.187 18.844 127.187 17.7801C127.187 16.4868 127.867 15.4841 129.227 14.7724C130.598 14.0529 132.521 13.6932 134.996 13.6932H137.865V12.7174C137.865 11.975 137.557 11.3857 136.94 10.9495C136.324 10.5056 134.635 10.8232 133.434 10.8232C134.146 10.4405 132.383 10.8232 133.434 10.8232C132.723 11.2059 131.57 12.174 131.57 12.7174L127.538 12.2467C127.538 11.6268 127.841 11.0298 128.446 10.4558C129.062 9.87417 129.891 9.41495 130.932 9.07819C131.984 8.74147 133.137 8.57307 134.39 8.57307C136.377 8.57307 137.934 8.9328 139.06 9.6522C140.186 10.364 140.77 11.3474 140.813 12.6026V18.3197C140.813 19.46 141.015 20.367 141.419 21.0405V21.2242H138.327ZM133.434 19.6055C134.359 19.6055 135.235 19.4332 136.064 19.0889C136.892 18.7445 137.493 18.2967 137.865 17.7456V15.1971H135.554C131.942 15.1971 130.135 15.9587 130.135 17.4816C130.135 18.1474 130.444 18.6679 131.06 19.0429C131.676 19.4179 132.467 19.6055 133.434 19.6055ZM160 15.1512C160 17.0416 159.4 18.5646 158.199 19.7204C156.999 20.876 155.373 21.4537 153.323 21.4537C151.23 21.4537 149.583 20.9755 148.382 20.0188V25.9999H145.118V9.07819L148.128 8.80269L148.271 10.1803C149.471 9.10883 151.139 8.57307 153.275 8.57307C155.346 8.57307 156.983 9.13561 158.183 10.2606C159.394 11.3857 160 12.9508 160 14.956V15.1512ZM157.052 14.9101C157.052 13.5095 156.621 13.5287 155.793 12.7174C154.964 11.9062 153.875 11.5924 152.43 11.5924C150.645 11.5924 149.275 14.0568 148.382 15.1971L149.763 17.7456C150.645 18.8785 151.506 19.4562 153.323 19.4562C154.735 19.4562 156.223 17.8031 157.052 16.9994C157.891 16.1882 157.052 16.5021 157.052 14.9101Z" fill="#00BEA8"/>
<path d="M12 24C18.6274 24 24 18.6274 24 12C24 5.37258 18.6274 0 12 0C5.37258 0 0 5.37258 0 12C0 18.6274 5.37258 24 12 24Z" fill="#00BEA8"/>
<path d="M13.159 15.8246L9.99634 11.585L13.9811 7.95349C13.9811 7.95349 14.5586 7.32951 15.8568 7.28418L20.0922 7.13623C20.0922 7.13623 15.1016 10.4736 15.0156 11.1765C14.9384 11.8722 19.487 16.729 19.487 16.729L16.1446 16.8456C13.8428 16.9261 13.159 15.8246 13.159 15.8246Z" fill="white"/>
<path d="M10.6567 9.64081L11.1517 7.44849L6.75053 7.60218L4.83887 16.2181L9.23083 16.0648L9.81248 13.4508L8.46786 11.6384L10.6567 9.64081Z" fill="white"/>
</svg>