<svg width="24" height="17" viewBox="0 0 24 17" fill="none" xmlns="http://www.w3.org/2000/svg">
<path d="M23.2941 3.19445C22.914 3.19445 22.5882 3.52779 22.5882 3.91668V4.00001C21.5023 3.3889 20.2534 2.80556 18.8959 2.36112V1.55556C18.8959 1.16667 18.5701 0.833334 18.19 0.833334C17.8099 0.833334 17.4842 1.16667 17.4842 1.55556V1.97223C16.0996 1.61112 14.4977 1.36111 12.7059 1.30556V0.722224C12.7059 0.333334 12.3801 0 12 0C11.6199 0 11.2941 0.333334 11.2941 0.722224V1.30556C9.50226 1.36111 7.8733 1.63889 6.51584 1.97223V1.58333C6.51584 1.19445 6.19005 0.861108 5.80996 0.861108C5.42987 0.861108 5.10408 1.19445 5.10408 1.58333V2.38889C3.71946 2.83334 2.47059 3.41667 1.41177 4.02779V3.91668C1.41177 3.52779 1.08597 3.19445 0.705884 3.19445C0.325793 3.19445 0 3.52779 0 3.91668V16.2778C0 16.6667 0.325793 17 0.705884 17H6.43439C6.81448 17 7.14027 16.6667 7.14027 16.2778V14.8612C7.14027 12.1389 9.31222 9.9167 11.9728 9.9167C14.6335 9.9167 16.8054 12.1389 16.8054 14.8612V16.2778C16.8054 16.6667 17.1312 17 17.5113 17H23.2941C23.6742 17 24 16.6667 24 16.2778C24 15.6945 24 4.41668 24 3.91668C24 3.52779 23.6742 3.19445 23.2941 3.19445ZM5.72851 15.5556H1.35747C1.35747 15.3334 1.35747 9.36114 1.35747 9.02781C3.9095 7.33336 7.819 6.0278 11.9728 6.0278C16.0995 6.0278 20.009 7.30557 22.5882 9.02781V15.5556H18.2172V14.8612C18.2172 11.3334 15.4208 8.47224 11.9728 8.47224C8.52489 8.47224 5.72851 11.3334 5.72851 14.8612V15.5556ZM22.5882 5.69447V7.33336C21.5023 6.72224 20.2534 6.13891 18.8959 5.69447V3.8889C20.3348 4.41668 21.638 5.08335 22.5882 5.69447ZM17.457 3.44446V5.2778C16.0724 4.91668 14.4706 4.66668 12.6787 4.61113V2.72223C14.4977 2.77779 16.1267 3.08334 17.457 3.44446ZM11.267 2.72223V4.61113C9.47511 4.66668 7.84616 4.94446 6.48869 5.2778V3.44446C7.84616 3.08334 9.44796 2.77779 11.267 2.72223ZM5.04977 3.8889V5.69447C3.66516 6.13891 2.41629 6.72224 1.35747 7.33336V5.69447C1.90045 5.36113 3.17647 4.58334 5.04977 3.8889Z" fill="#00BEA8"/>
</svg>
