<svg width="24" height="24" viewBox="0 0 24 24" fill="none" xmlns="http://www.w3.org/2000/svg">
<path d="M22.5457 1.46434C22.6486 0.865239 22.1788 0.360085 21.7204 0.578709L1.83806 10.0661C1.59877 10.1803 1.44049 10.467 1.44 10.7872C1.4395 11.1074 1.59687 11.3948 1.83583 11.5102L7.42115 14.2066V22.6996C7.42115 23.0578 7.61795 23.3692 7.8968 23.452C8.17379 23.5343 8.46263 23.3696 8.59248 23.0476L10.9025 17.3176L16.5398 22.5472C16.8828 22.8653 17.3756 22.663 17.5004 22.1518C22.7638 0.580412 22.5363 1.51853 22.5457 1.46434ZM17.6377 4.18258L7.95221 12.8047L3.78484 10.7929L17.6377 4.18258ZM8.65864 14.0749L17.1012 6.55934C9.83648 16.139 10.2159 15.6348 10.1842 15.6881C10.1372 15.7673 10.2661 15.4588 8.65864 19.4461V14.0749ZM16.5727 20.6514L11.6105 16.0482L20.5828 4.21661L16.5727 20.6514Z" fill="#00BEA8"/>
</svg>
