<svg width="157" height="24" viewBox="0 0 157 24" fill="none" xmlns="http://www.w3.org/2000/svg">
<path d="M12 24C18.6274 24 24 18.6274 24 12C24 5.37258 18.6274 0 12 0C5.37258 0 0 5.37258 0 12C0 18.6274 5.37258 24 12 24Z" fill="#49FFA1"/>
<path d="M12 23.1248C18.1441 23.1248 23.1248 18.1441 23.1248 12C23.1248 5.85593 18.1441 0.875183 12 0.875183C5.85593 0.875183 0.875183 5.85593 0.875183 12C0.875183 18.1441 5.85593 23.1248 12 23.1248Z" fill="#33B371"/>
<path d="M12 22.4981C17.7979 22.4981 22.4981 17.7979 22.4981 12C22.4981 6.20207 17.7979 1.50191 12 1.50191C6.20207 1.50191 1.50191 6.20207 1.50191 12C1.50191 17.7979 6.20207 22.4981 12 22.4981Z" fill="url(#paint0_linear_0_1)"/>
<path d="M11.9995 20.5736L4.26787 7.18623H4.42536C5.83212 7.18623 7.23919 7.18515 8.64657 7.183C8.6942 7.17821 8.74212 7.18852 8.78357 7.21248C8.82501 7.23643 8.85787 7.27281 8.87749 7.31647C9.57887 8.53819 10.2827 9.75822 10.989 10.9766C11.9681 12.6715 12.9468 14.3668 13.9249 16.0624C14.027 16.2392 14.1314 16.4152 14.2288 16.5944C14.2378 16.6131 14.2427 16.6334 14.2432 16.6541C14.2437 16.6748 14.2397 16.6954 14.2316 16.7145C13.501 17.9842 12.7685 19.2529 12.0342 20.5205C12.0263 20.5344 12.0162 20.5478 11.9995 20.5736ZM6.99734 8.76157L11.9949 17.4142C12.0092 17.4012 12.0189 17.3962 12.0235 17.3878C12.1579 17.1569 12.2933 16.926 12.424 16.6918C12.4291 16.6767 12.4309 16.6606 12.4293 16.6447C12.4277 16.6287 12.4227 16.6133 12.4147 16.5995C12.1022 16.0523 11.7882 15.506 11.4726 14.9604C10.8334 13.8541 10.1934 12.748 9.5527 11.6421C9.01019 10.703 8.46692 9.76392 7.92287 8.82484C7.91443 8.80926 7.90278 8.79564 7.88869 8.78489C7.8746 8.77414 7.85839 8.76651 7.84112 8.7625C7.56679 8.75972 7.29246 8.76157 6.99734 8.76157Z" fill="#49FFA1"/>
<path d="M14.7142 15.885C13.9411 14.5457 13.1759 13.2216 12.405 11.8855C12.4415 11.8822 12.4674 11.8781 12.4933 11.8781C13.0327 11.8781 13.5721 11.8781 14.112 11.8781C14.1442 11.8738 14.1769 11.88 14.2053 11.8957C14.2338 11.9114 14.2564 11.9358 14.27 11.9654C14.3956 12.1935 14.529 12.4175 14.6597 12.6429C14.6754 12.6697 14.6925 12.6946 14.7161 12.732L15.6504 11.1128C15.6042 11.1105 15.5705 11.1077 15.5372 11.1077C14.3765 11.1077 13.216 11.1077 12.0559 11.1077C12.0253 11.1113 11.9943 11.1053 11.9672 11.0905C11.9401 11.0757 11.9184 11.0528 11.9049 11.0251C11.1795 9.76515 10.4525 8.50587 9.72406 7.2472C9.71528 7.23288 9.70789 7.21764 9.69496 7.19316H19.7321C19.6495 7.33679 19.5696 7.47812 19.4883 7.61852C19.2823 7.97552 19.0726 8.3316 18.8708 8.68952C18.8605 8.71302 18.8431 8.73272 18.8211 8.74589C18.7991 8.75905 18.7735 8.76502 18.748 8.76296C17.0096 8.7608 15.2709 8.7608 13.5319 8.76296H12.4263C12.4457 8.80175 12.4586 8.83177 12.4748 8.85994C12.5884 9.05853 12.7057 9.25574 12.8152 9.45618C12.8275 9.48443 12.8484 9.5081 12.8749 9.52384C12.9014 9.53958 12.9322 9.54661 12.9629 9.54393C13.9577 9.54147 14.9524 9.54147 15.9469 9.54393H18.3762L14.7142 15.885Z" fill="#49FFA1"/>
<path d="M7.02321 6.2778L7.84067 5.8058C9.19848 5.02344 10.5567 4.24047 11.9155 3.45688C11.9417 3.43818 11.9731 3.42813 12.0053 3.42813C12.0375 3.42813 12.0689 3.43818 12.0951 3.45688C13.4262 4.22908 14.7584 4.99881 16.0919 5.76608L16.9232 6.24686C16.9338 6.25332 16.9435 6.26164 16.9745 6.28473H16.775C15.8619 6.28473 14.9484 6.28473 14.0353 6.28473C13.9802 6.28408 13.9261 6.26981 13.8778 6.24316C13.2756 5.89894 12.6752 5.55271 12.0767 5.20448C12.0561 5.1895 12.0312 5.18143 12.0058 5.18143C11.9803 5.18143 11.9555 5.1895 11.9349 5.20448C11.332 5.55456 10.7282 5.90248 10.1235 6.24824C10.0845 6.27045 10.0405 6.28281 9.99561 6.28427C9.02575 6.28611 8.05588 6.28611 7.08602 6.28427C7.07355 6.28519 7.06339 6.28288 7.02321 6.2778Z" fill="#49FFA1"/>
<path d="M9.81595 18.6861C9.5661 18.5429 9.34118 18.415 9.11719 18.2857C7.71904 17.4793 6.32182 16.6735 4.92553 15.8684C4.89752 15.8559 4.87409 15.835 4.85846 15.8086C4.84283 15.7822 4.83576 15.7516 4.83824 15.7211C4.84101 14.4895 4.84101 13.2588 4.83824 12.0291C4.83824 11.4059 4.83824 10.7826 4.83824 10.1591C4.83824 10.136 4.84101 10.1129 4.84378 10.0635C4.98233 10.2981 5.1038 10.5096 5.22618 10.7221C5.57672 11.329 5.92449 11.9372 6.27826 12.5417C6.33452 12.6346 6.36364 12.7413 6.36231 12.8498C6.35815 13.5088 6.36231 14.1683 6.35815 14.8274C6.35516 14.8598 6.36248 14.8924 6.37906 14.9204C6.39565 14.9484 6.42066 14.9705 6.45052 14.9835C7.04938 15.3268 7.64684 15.6721 8.24292 16.0194C8.28214 16.0417 8.31517 16.0735 8.33899 16.1118C8.82484 16.9489 9.30916 17.7872 9.79194 18.6265C9.80107 18.6459 9.80909 18.6658 9.81595 18.6861V18.6861Z" fill="#49FFA1"/>
<path d="M19.1664 10.0898V10.4593C19.1664 10.9461 19.1664 11.4329 19.1664 11.9196C19.1639 13.1749 19.1622 14.4302 19.1613 15.6855C19.1654 15.7263 19.1567 15.7674 19.1364 15.803C19.1161 15.8387 19.0853 15.8672 19.0482 15.8845C18.5361 16.1743 18.0256 16.4668 17.5167 16.762C16.6694 17.2516 15.8227 17.7421 14.9766 18.2335C14.7216 18.3813 14.4658 18.5272 14.1965 18.6611C14.3095 18.465 14.4225 18.2689 14.5355 18.0727C14.9124 17.4203 15.2898 16.768 15.6679 16.1159C15.6921 16.0777 15.7252 16.046 15.7645 16.0236C16.3639 15.675 16.9643 15.3277 17.5656 14.9817C17.5923 14.9695 17.6146 14.9495 17.6296 14.9244C17.6445 14.8992 17.6514 14.87 17.6492 14.8408C17.6455 14.157 17.6455 13.4728 17.6492 12.7884C17.6498 12.7262 17.6657 12.6652 17.6954 12.6106C18.1662 11.7845 18.6396 10.9596 19.1156 10.136C19.1257 10.1185 19.1368 10.1014 19.1474 10.0838L19.1664 10.0898Z" fill="#49FFA1"/>
<g clip-path="url(#clip0_0_1)">
<path d="M46 11.9934C46.0023 12.7994 45.8932 13.6018 45.6758 14.378C45.468 15.1293 45.1649 15.851 44.774 16.5254C44.3852 17.1931 43.9117 17.8078 43.3654 18.3541C42.8205 18.9 42.2091 19.3752 41.5455 19.7685C40.5106 20.3743 39.365 20.767 38.1761 20.9233C36.9872 21.0796 35.779 20.9965 34.6228 20.6787C33.1197 20.2593 31.7502 19.4589 30.6467 18.3552C29.5433 17.2514 28.7432 15.8815 28.3239 14.378C28.0042 13.2216 27.9201 12.0127 28.0764 10.8232C28.2327 9.63361 28.6263 8.48759 29.2338 7.45311C29.627 6.78937 30.102 6.17775 30.6478 5.63265C31.194 5.08618 31.8084 4.61261 32.4759 4.2237C33.1501 3.83261 33.8716 3.52946 34.6228 3.32164C35.3988 3.10526 36.201 2.99705 37.0066 3.00006C37.8149 2.9974 38.6198 3.1056 39.3987 3.32164C40.8967 3.7334 42.2621 4.5277 43.3606 5.62659C44.4592 6.72547 45.2532 8.09118 45.6649 9.5897C45.8868 10.3716 45.9996 11.1805 46 11.9934V11.9934ZM42.5399 11.9934C42.5444 11.2525 42.396 10.5186 42.104 9.8377C41.5439 8.5107 40.4883 7.45472 39.1617 6.89443C38.4787 6.60662 37.745 6.45835 37.0039 6.45835C36.2628 6.45835 35.5292 6.60662 34.8462 6.89443C34.1912 7.17576 33.5951 7.57792 33.0889 8.07991C32.5812 8.58256 32.1768 9.1797 31.8983 9.8377C31.6063 10.5186 31.4579 11.2525 31.4624 11.9934C31.4571 12.7299 31.6056 13.4595 31.8983 14.1354C32.4672 15.4584 33.5225 16.5121 34.8462 17.0787C35.5292 17.3665 36.2628 17.5148 37.0039 17.5148C37.745 17.5148 38.4787 17.3665 39.1617 17.0787C39.8192 16.7994 40.4168 16.396 40.9216 15.8905C41.4211 15.3838 41.8221 14.7887 42.104 14.1354C42.3968 13.4595 42.5452 12.7299 42.5399 11.9934V11.9934Z" fill="#49FFA1"/>
<path d="M60.4554 18.9841H59.6557L58.3718 17.176C58.0554 17.4648 57.722 17.734 57.3736 17.9821C57.0227 18.231 56.6514 18.4489 56.2638 18.6335C55.8809 18.8163 55.4821 18.9624 55.0724 19.0697C54.6662 19.1752 54.2487 19.229 53.8294 19.2298C52.9505 19.2354 52.0782 19.0763 51.2562 18.7605C50.4679 18.4619 49.7499 17.9993 49.1482 17.4023C48.5287 16.7841 48.0432 16.0413 47.7229 15.2215C47.3634 14.286 47.1869 13.2884 47.2034 12.2843C47.1929 11.3185 47.3694 10.3599 47.7229 9.46308C48.0487 8.63812 48.5332 7.88734 49.1482 7.25466C49.7494 6.63877 50.4662 6.15158 51.2562 5.82195C52.0719 5.47947 52.9467 5.30584 53.8294 5.31125C54.2505 5.31107 54.67 5.36486 55.0779 5.47136C55.4911 5.5781 55.8929 5.72605 56.2774 5.91304C56.6646 6.10199 57.035 6.32459 57.3844 6.57833C57.7326 6.83008 58.0626 7.10685 58.3718 7.40649L59.6557 5.84403H60.4554V18.9841ZM57.1369 12.2843C57.1336 11.8261 57.0412 11.3729 56.8649 10.951C56.6979 10.5274 56.4574 10.1375 56.155 9.79986C55.8579 9.46938 55.5028 9.19791 55.1078 8.99931C54.7105 8.79928 54.2729 8.69534 53.8294 8.69565C53.3926 8.69242 52.959 8.772 52.551 8.9303C52.1589 9.08041 51.8035 9.3149 51.5092 9.61767C51.2028 9.94017 50.9657 10.3237 50.8129 10.744C50.6355 11.2371 50.5497 11.7594 50.5599 12.2843C50.5511 12.8064 50.6368 13.3258 50.8129 13.8164C50.965 14.2362 51.2022 14.619 51.5092 14.94C51.804 15.2427 52.1592 15.478 52.551 15.6301C52.9595 15.7862 53.3928 15.8648 53.8294 15.862C54.2728 15.8645 54.7107 15.7614 55.1078 15.5611C55.5028 15.3661 55.858 15.0973 56.155 14.7688C56.4563 14.4303 56.6966 14.0406 56.8649 13.6177C57.0411 13.1957 57.1336 12.7426 57.1369 12.2843V12.2843Z" fill="#49FFA1"/>
<path d="M70.1006 18.9841H62.5416V15.6384H70.1006C70.317 15.6384 70.5245 15.5511 70.6776 15.3958C70.8306 15.2405 70.9166 15.0299 70.9166 14.8102C70.9285 14.7166 70.9116 14.6216 70.8683 14.5381C70.8249 14.4546 70.7573 14.3867 70.6745 14.3437C70.4904 14.2654 70.292 14.2277 70.0924 14.2333H66.657C66.1026 14.2371 65.5534 14.1243 65.044 13.902C64.0605 13.4698 63.2805 12.6672 62.868 11.6632C62.6562 11.1447 62.5472 10.5889 62.5472 10.0276C62.5472 9.46631 62.6562 8.91051 62.868 8.392C63.0732 7.89641 63.3706 7.44559 63.7439 7.06419C64.1203 6.68543 64.5643 6.38283 65.0522 6.17254C65.5596 5.95289 66.1054 5.83928 66.657 5.83852H73.3564V9.18427H66.657C66.4406 9.18427 66.233 9.27152 66.08 9.42683C65.927 9.58214 65.841 9.79279 65.841 10.0124C65.8393 10.1249 65.8599 10.2367 65.9015 10.341C65.943 10.4453 66.0048 10.5401 66.0831 10.6197C66.1573 10.7009 66.2475 10.7654 66.3477 10.8091C66.4479 10.8529 66.5561 10.8749 66.6652 10.8737H70.106C70.6513 10.8657 71.1934 10.9592 71.7054 11.1498C72.188 11.3317 72.632 11.6053 73.0137 11.9558C73.3877 12.3053 73.6884 12.7278 73.8977 13.1981C74.1183 13.696 74.2296 14.2367 74.2241 14.7826C74.2287 15.3427 74.1175 15.8976 73.8977 16.4113C73.6856 16.9059 73.386 17.3569 73.0137 17.7419C72.639 18.1241 72.1946 18.4288 71.7054 18.6391C71.1992 18.8638 70.6531 18.9812 70.1006 18.9841Z" fill="#49FFA1"/>
<path d="M79.8764 2.23602C79.8791 2.53685 79.8198 2.83493 79.7023 3.11111C79.5877 3.37499 79.4253 3.6147 79.2236 3.8178C79.0177 4.01969 78.777 4.18156 78.5136 4.29537C78.2397 4.41375 77.945 4.47476 77.6473 4.47476C77.3496 4.47476 77.0549 4.41375 76.781 4.29537C76.5189 4.1835 76.2807 4.02134 76.0792 3.8178C75.8791 3.61448 75.7186 3.37474 75.6059 3.11111C75.4896 2.83593 75.4296 2.53961 75.4296 2.24016C75.4296 1.94071 75.4896 1.64439 75.6059 1.36921C75.7178 1.10352 75.8784 0.861828 76.0792 0.657C76.2806 0.452631 76.5188 0.289548 76.781 0.176668C77.0554 0.060124 77.3498 0.000106812 77.6473 0.000106812C77.9447 0.000106812 78.2392 0.060124 78.5136 0.176668C78.7772 0.291475 79.0178 0.454268 79.2236 0.657C79.4299 0.860647 79.5961 1.10237 79.7132 1.36921C79.8254 1.64378 79.881 1.9388 79.8764 2.23602V2.23602ZM79.3079 18.9841H75.9758V5.81642H79.3079V18.9841Z" fill="#49FFA1"/>
<path d="M88.9612 18.9841H81.3914V15.6384H88.9612C89.1777 15.6384 89.3852 15.5511 89.5382 15.3958C89.6913 15.2405 89.7772 15.0299 89.7772 14.8102C89.7891 14.7166 89.7723 14.6216 89.7289 14.5381C89.6856 14.4546 89.6179 14.3867 89.5352 14.3437C89.3548 14.2608 89.1592 14.2176 88.9612 14.2167H85.5095C84.9559 14.2208 84.4076 14.108 83.8993 13.8854C83.4098 13.6719 82.9655 13.3645 82.5909 12.98C82.2173 12.5962 81.9191 12.1437 81.7124 11.6467C81.5005 11.1281 81.3915 10.5723 81.3915 10.011C81.3915 9.44974 81.5005 8.89394 81.7124 8.37543C82.1259 7.37926 82.9068 6.58668 83.8884 6.16701C84.3978 5.94881 84.9457 5.83799 85.4986 5.84127H92.1981V9.18427H85.5095C85.2931 9.18427 85.0855 9.27152 84.9325 9.42683C84.7795 9.58214 84.6935 9.79278 84.6935 10.0124C84.6918 10.1249 84.7124 10.2366 84.754 10.341C84.7955 10.4453 84.8573 10.5401 84.9356 10.6197C85.0101 10.7006 85.1002 10.7649 85.2004 10.8086C85.3006 10.8524 85.4086 10.8745 85.5177 10.8737H88.9612C89.5065 10.8657 90.0486 10.9592 90.5606 11.1498C91.0432 11.3317 91.4872 11.6053 91.8689 11.9558C92.2548 12.3145 92.562 12.7515 92.7705 13.2385C92.9791 13.7255 93.0843 14.2516 93.0794 14.7826C93.084 15.3427 92.9728 15.8975 92.753 16.4113C92.5419 16.9065 92.2421 17.3576 91.8689 17.7419C91.4942 18.1241 91.0499 18.4288 90.5606 18.6391C90.0561 18.863 89.5119 18.9804 88.9612 18.9841V18.9841Z" fill="#49FFA1"/>
<path d="M94.1592 6.63906C94.1551 5.93275 94.2959 5.23331 94.5727 4.58523C94.8379 3.95624 95.2182 3.38393 95.6933 2.89854C96.1682 2.41602 96.7295 2.02999 97.3471 1.76121C97.9848 1.48099 98.6732 1.33902 99.3681 1.34437H107.34V4.8806H99.3681C99.1356 4.87821 98.9051 4.92425 98.6908 5.01587C98.4876 5.10484 98.303 5.23225 98.1468 5.3913C97.9894 5.54873 97.8646 5.73643 97.7796 5.9434C97.6893 6.16087 97.6439 6.39481 97.6463 6.63077C97.6445 6.86937 97.6898 7.10591 97.7796 7.32643C97.8643 7.53358 97.9891 7.72134 98.1468 7.87853C98.3047 8.04655 98.4941 8.18094 98.7038 8.27384C98.9135 8.36674 99.1393 8.41629 99.3681 8.41959H102.847C103.544 8.41518 104.235 8.55612 104.876 8.83367C106.129 9.36497 107.126 10.3755 107.651 11.6466C107.922 12.2991 108.06 13.0006 108.056 13.7088C108.06 14.4134 107.922 15.1114 107.651 15.7598C107.389 16.3869 107.01 16.9568 106.535 17.4382C106.058 17.9209 105.495 18.3069 104.876 18.5756C104.236 18.8562 103.545 18.999 102.847 18.9952H95.1303V15.4534H102.847C103.079 15.4558 103.31 15.4098 103.524 15.3181C103.84 15.1852 104.11 14.9602 104.3 14.6715C104.49 14.3828 104.592 14.0435 104.592 13.6963C104.592 13.3492 104.49 13.0099 104.3 12.7212C104.11 12.4325 103.84 12.2075 103.524 12.0745C103.31 11.9829 103.079 11.9369 102.847 11.9393H99.3681C98.673 11.9437 97.9846 11.8007 97.3471 11.5197C96.0987 10.9757 95.105 9.96421 94.5727 8.69565C94.2966 8.04639 94.1558 7.34619 94.1592 6.63906V6.63906Z" fill="#49FFA1"/>
<path d="M126.239 14.2167C126.243 14.8863 126.112 15.5497 125.853 16.1656C125.605 16.7616 125.245 17.3027 124.792 17.7585C124.338 18.212 123.804 18.5744 123.217 18.8268C122.607 19.0913 121.95 19.2257 121.286 19.2215C120.682 19.2268 120.082 19.1212 119.515 18.9096C118.949 18.6913 118.428 18.3684 117.978 17.9572C117.534 18.3679 117.019 18.6909 116.458 18.9096C115.89 19.1269 115.288 19.2373 114.682 19.2353C114.02 19.2397 113.364 19.1053 112.756 18.8406C112.172 18.5875 111.639 18.2251 111.187 17.7723C110.735 17.3162 110.376 16.7752 110.128 16.1794C109.866 15.5598 109.733 14.8913 109.74 14.2167V5.83852H113.047V14.2167C113.047 14.4346 113.089 14.6504 113.171 14.8517C113.253 15.0531 113.374 15.2359 113.526 15.3899C113.676 15.5411 113.852 15.6628 114.045 15.7488C114.247 15.8345 114.463 15.8777 114.682 15.8758C114.902 15.8775 115.12 15.8343 115.324 15.7488C115.526 15.6649 115.71 15.5431 115.868 15.3899C116.022 15.2377 116.143 15.055 116.224 14.8532C116.306 14.6514 116.345 14.4347 116.341 14.2167V5.83852H119.638V14.2167C119.636 14.4392 119.681 14.6596 119.771 14.8627C119.857 15.059 119.978 15.2378 120.127 15.3899C120.278 15.5418 120.455 15.6635 120.65 15.7488C120.851 15.8347 121.068 15.8779 121.286 15.8758C121.503 15.8782 121.718 15.8364 121.918 15.753C122.118 15.6695 122.3 15.5461 122.453 15.3899C122.603 15.2379 122.725 15.0592 122.812 14.8627C122.9 14.6592 122.946 14.4391 122.945 14.2167V5.83852H126.239V14.2167Z" fill="#49FFA1"/>
<path d="M141.202 18.9841H140.402L139.119 17.176C138.801 17.4648 138.467 17.734 138.118 17.9821C137.767 18.2303 137.397 18.4483 137.011 18.6335C136.627 18.8159 136.227 18.9619 135.816 19.0697C135.411 19.1752 134.994 19.229 134.576 19.2298C133.696 19.2355 132.823 19.0764 132 18.7605C131.212 18.4612 130.494 17.9987 129.892 17.4023C129.274 16.7839 128.789 16.0411 128.47 15.2215C128.108 14.2865 127.931 13.2886 127.947 12.2843C127.936 11.3182 128.114 10.3593 128.47 9.46308C128.794 8.63828 129.278 7.8875 129.892 7.25466C130.494 6.63934 131.211 6.15224 132 5.82195C132.817 5.47947 133.693 5.30584 134.576 5.31125C134.996 5.31091 135.415 5.36471 135.822 5.47136C136.235 5.5772 136.637 5.72518 137.021 5.91304C137.41 6.10137 137.781 6.32399 138.131 6.57833C138.479 6.83078 138.809 7.10751 139.119 7.40649L140.402 5.84403H141.202V18.9841ZM137.87 12.2843C137.867 11.826 137.774 11.3729 137.598 10.951C137.431 10.5304 137.192 10.1434 136.891 9.80814C136.593 9.47828 136.238 9.2069 135.844 9.00759C135.45 8.80634 135.017 8.69961 134.576 8.69565C134.139 8.69216 133.706 8.77175 133.298 8.9303C132.905 9.07969 132.55 9.31428 132.256 9.61767C131.949 9.93942 131.711 10.3231 131.56 10.744C131.381 11.2331 131.295 11.7518 131.304 12.2733C131.295 12.7957 131.381 13.3152 131.56 13.8054C131.711 14.2257 131.948 14.6086 132.256 14.9289C132.55 15.2322 132.906 15.4676 133.298 15.619C133.706 15.7754 134.14 15.854 134.576 15.8509C135.02 15.8534 135.457 15.7504 135.855 15.55C136.248 15.3575 136.603 15.0926 136.902 14.7688C137.201 14.4327 137.441 14.0459 137.609 13.6259C137.782 13.2006 137.871 12.7447 137.87 12.2843V12.2843Z" fill="#49FFA1"/>
<path d="M147.053 24H143.721V5.81642H144.521L145.842 7.40096C146.15 7.10663 146.478 6.83538 146.824 6.58937C147.174 6.3394 147.545 6.12051 147.931 5.93512C148.314 5.74983 148.714 5.60372 149.126 5.49896C149.533 5.39214 149.953 5.33834 150.374 5.33885C151.255 5.33291 152.129 5.5017 152.947 5.83575C153.736 6.15708 154.452 6.63583 155.055 7.24361C155.672 7.87465 156.155 8.62591 156.478 9.45203C156.833 10.3523 157.01 11.3146 157 12.2843C157.015 13.2831 156.838 14.2753 156.478 15.205C156.158 16.0326 155.674 16.7844 155.055 17.4134C154.454 18.0163 153.736 18.4862 152.947 18.7936C152.127 19.1171 151.254 19.28 150.374 19.274C150.082 19.2735 149.791 19.2411 149.506 19.1774C149.217 19.1065 148.934 19.0142 148.658 18.9013C148.386 18.7909 148.114 18.6639 147.842 18.5259C147.57 18.3878 147.311 18.2498 147.061 18.0952L147.053 24ZM153.679 12.2843C153.688 11.7725 153.6 11.2637 153.42 10.7854C153.26 10.3656 153.019 9.98267 152.711 9.65907C152.411 9.35288 152.053 9.11235 151.658 8.95238C151.249 8.78828 150.813 8.70489 150.374 8.70669C149.936 8.70416 149.502 8.78759 149.096 8.95238C148.702 9.1131 148.345 9.35356 148.046 9.65907C147.739 9.98351 147.499 10.3663 147.338 10.7854C147.154 11.2628 147.062 11.7716 147.066 12.2843C147.064 12.7852 147.156 13.2819 147.338 13.7474C147.499 14.1682 147.739 14.5528 148.046 14.8792C148.345 15.1876 148.702 15.4317 149.096 15.597C149.5 15.7689 149.935 15.8562 150.374 15.8537C150.815 15.8558 151.251 15.7685 151.658 15.597C152.054 15.43 152.412 15.183 152.711 14.8709C153.019 14.5453 153.26 14.1605 153.42 13.7391C153.597 13.2753 153.685 12.7815 153.679 12.2843Z" fill="#49FFA1"/>
</g>
<defs>
<linearGradient id="paint0_linear_0_1" x1="12" y1="1.50145" x2="12" y2="22.4981" gradientUnits="userSpaceOnUse">
<stop stop-color="#171717"/>
<stop offset="0.61" stop-color="#1D2F23"/>
<stop offset="1" stop-color="#22402C"/>
</linearGradient>
<clipPath id="clip0_0_1">
<rect width="129" height="24" fill="white" transform="translate(28)"/>
</clipPath>
</defs>
</svg>
