<svg width="132" height="132" viewBox="0 0 132 132" fill="none" xmlns="http://www.w3.org/2000/svg">
<path d="M66 132C102.451 132 132 102.451 132 66C132 29.5492 102.451 0 66 0C29.5492 0 0 29.5492 0 66C0 102.451 29.5492 132 66 132Z" fill="#49FFA1"/>
<path d="M65.9999 127.186C99.7923 127.186 127.186 99.7923 127.186 65.9999C127.186 32.2076 99.7923 4.81348 65.9999 4.81348C32.2076 4.81348 4.81348 32.2076 4.81348 65.9999C4.81348 99.7923 32.2076 127.186 65.9999 127.186Z" fill="#33B371"/>
<path d="M65.9998 123.74C97.8885 123.74 123.739 97.8887 123.739 66C123.739 34.1114 97.8885 8.2605 65.9998 8.2605C34.1111 8.2605 8.26025 34.1114 8.26025 66C8.26025 97.8887 34.1111 123.74 65.9998 123.74Z" fill="url(#paint0_linear_206_12)"/>
<path d="M65.9973 113.155L23.4731 39.5243H24.3393C32.0765 39.5243 39.8154 39.5184 47.556 39.5065C47.818 39.4802 48.0816 39.5369 48.3095 39.6687C48.5374 39.8004 48.7181 40.0005 48.8261 40.2406C52.6837 46.9601 56.5548 53.6703 60.4395 60.3711C65.8246 69.6934 71.2071 79.0173 76.587 88.343C77.1484 89.3159 77.7225 90.2836 78.2584 91.2692C78.3079 91.3719 78.3348 91.4839 78.3374 91.5978C78.34 91.7117 78.3183 91.8248 78.2737 91.9296C74.2552 98.9133 70.2266 105.891 66.1878 112.863C66.1446 112.939 66.0887 113.013 65.9973 113.155ZM38.4852 48.1887L65.9719 95.7779C66.0506 95.7068 66.104 95.6789 66.1294 95.6331C66.8685 94.3631 67.6128 93.093 68.3317 91.8052C68.3598 91.7217 68.3698 91.6333 68.361 91.5457C68.3522 91.4581 68.3249 91.3734 68.2809 91.2972C66.562 88.288 64.8348 85.283 63.099 82.2822C59.5835 76.1978 56.0637 70.1142 52.5397 64.0314C49.5559 58.8665 46.5679 53.7016 43.5757 48.5367C43.5293 48.451 43.4652 48.376 43.3877 48.3169C43.3102 48.2578 43.221 48.2158 43.126 48.1938C41.6172 48.1785 40.1084 48.1887 38.4852 48.1887Z" fill="#49FFA1"/>
<path d="M80.9283 87.3675C76.6762 80.0011 72.4672 72.7186 68.2277 65.37C68.4284 65.3522 68.5706 65.3294 68.7129 65.3294C71.6797 65.3294 74.6466 65.3294 77.616 65.3294C77.7931 65.3061 77.973 65.3401 78.1293 65.4265C78.2857 65.5129 78.4102 65.6471 78.4847 65.8095C79.1756 67.0643 79.9097 68.2962 80.6286 69.5358C80.715 69.6832 80.8089 69.8203 80.9385 70.0261L86.0771 61.1204C85.8231 61.1077 85.6377 61.0925 85.4548 61.0925C79.0706 61.0925 72.6882 61.0925 66.3074 61.0925C66.1389 61.1122 65.9684 61.079 65.8196 60.9975C65.6708 60.9161 65.5509 60.7903 65.4767 60.6378C61.4871 53.7083 57.4889 46.7823 53.4823 39.8596C53.434 39.7808 53.3934 39.697 53.3223 39.5624H108.527C108.072 40.3524 107.633 41.1296 107.186 41.9018C106.053 43.8653 104.899 45.8238 103.789 47.7924C103.733 47.9216 103.637 48.03 103.516 48.1024C103.395 48.1748 103.254 48.2076 103.114 48.1963C93.5527 48.1844 83.99 48.1844 74.4256 48.1963H68.3446C68.4512 48.4096 68.5224 48.5747 68.6113 48.7297C69.2361 49.8219 69.8813 50.9066 70.4833 52.009C70.5513 52.1644 70.6663 52.2945 70.8121 52.3811C70.9579 52.4677 71.1272 52.5063 71.2962 52.4916C76.7676 52.4781 82.2382 52.4781 87.7079 52.4916H101.069L80.9283 87.3675Z" fill="#49FFA1"/>
<path d="M38.6274 34.5279L43.1235 31.9319C50.5914 27.6289 58.0619 23.3226 65.535 19.0128C65.6792 18.91 65.8519 18.8547 66.029 18.8547C66.2061 18.8547 66.3789 18.91 66.5231 19.0128C73.8437 23.2599 81.1711 27.4935 88.5053 31.7135L93.0775 34.3577C93.1359 34.3933 93.1893 34.439 93.3595 34.566H92.2621C87.2403 34.566 82.2159 34.566 77.1941 34.566C76.8909 34.5625 76.5934 34.4839 76.3279 34.3374C73.0156 32.4442 69.7135 30.5399 66.4215 28.6247C66.3081 28.5423 66.1716 28.4979 66.0315 28.4979C65.8914 28.4979 65.755 28.5423 65.6416 28.6247C62.3259 30.5501 59.0051 32.4636 55.6793 34.3654C55.4643 34.4875 55.2228 34.5555 54.9757 34.5635C49.6414 34.5736 44.3072 34.5736 38.9729 34.5635C38.9043 34.5686 38.8484 34.5559 38.6274 34.5279Z" fill="#49FFA1"/>
<path d="M53.9875 102.773C52.6133 101.986 51.3763 101.282 50.1443 100.571C42.4545 96.136 34.7698 91.7043 27.0902 87.276C26.9362 87.2072 26.8073 87.0923 26.7213 86.9472C26.6353 86.8021 26.5965 86.6339 26.6101 86.4657C26.6253 79.6921 26.6253 72.9235 26.6101 66.16C26.6101 62.7325 26.6101 59.3042 26.6101 55.8751C26.6101 55.748 26.6253 55.621 26.6406 55.3492C27.4026 56.6396 28.0707 57.803 28.7438 58.9715C30.6717 62.3092 32.5845 65.6545 34.5302 68.9795C34.8396 69.49 34.9998 70.0769 34.9925 70.6738C34.9696 74.2986 34.9925 77.9258 34.9696 81.5506C34.9532 81.729 34.9934 81.908 35.0846 82.0621C35.1758 82.2163 35.3134 82.3377 35.4777 82.4092C38.7713 84.2973 42.0574 86.1965 45.3359 88.1067C45.5516 88.2293 45.7332 88.404 45.8642 88.6147C48.5364 93.2191 51.2002 97.8294 53.8554 102.446C53.9057 102.552 53.9498 102.662 53.9875 102.773V102.773Z" fill="#49FFA1"/>
<path d="M105.415 55.4941V57.5262C105.415 60.2035 105.415 62.8808 105.415 65.558C105.402 72.4621 105.392 79.3662 105.387 86.2702C105.41 86.4947 105.362 86.7205 105.25 86.9166C105.139 87.1127 104.969 87.2694 104.765 87.365C101.949 88.9585 99.1412 90.5672 96.342 92.1912C91.6817 94.8838 87.0248 97.5814 82.3713 100.284C80.9692 101.097 79.5619 101.9 78.0811 102.636C78.7025 101.558 79.324 100.479 79.9455 99.4001C82.0182 95.8118 84.0944 92.2243 86.1739 88.6376C86.3068 88.4275 86.489 88.2531 86.7048 88.1296C90.0018 86.2126 93.304 84.3025 96.6112 82.3991C96.7579 82.3325 96.8806 82.2225 96.9629 82.0839C97.0451 81.9454 97.0828 81.785 97.071 81.6243C97.0507 77.8632 97.0507 74.1005 97.071 70.336C97.0743 69.9942 97.1616 69.6583 97.325 69.3581C99.9142 64.8146 102.518 60.278 105.136 55.7481C105.192 55.6516 105.253 55.5576 105.311 55.4611L105.415 55.4941Z" fill="#49FFA1"/>
<defs>
<linearGradient id="paint0_linear_206_12" x1="65.9998" y1="8.25796" x2="65.9998" y2="123.74" gradientUnits="userSpaceOnUse">
<stop stop-color="#171717"/>
<stop offset="0.61" stop-color="#1D2F23"/>
<stop offset="1" stop-color="#22402C"/>
</linearGradient>
</defs>
</svg>
